<svg xmlns="http://www.w3.org/2000/svg" width="78" height="46" viewBox="0 0 78 46">
  <g fill="none" fill-rule="evenodd">
    <path fill="#F9F8F7" d="M31 16C31 16 33.0351624 11.0072953 38.4343833 8.51204405 43.8336042 6.01679284 54.9526538 0 54.9526538 0 54.9526538 0 55.4591211 4.53461803 53.1591088 5.66441844 49.0074704 7.70378527 42.7045072 9.0934618 39.4333786 10.3487956 34.5824435 12.2009635 31 16 31 16M32.0452156 17C32.0224542 17 32.0023971 16.9753061 32 16.9573469 31.9731002 16.7755102 35.7726806 13.8571429 39.2612632 12.2677551 42.159401 10.9477551 46.9122568 9.52673469 49.4024918 8.62428571 52.2188236 7.59589796 55.0887913 6.71993878 58 6 58 6 56.8957329 10.597551 51.9513206 11.8053061 48.5481496 12.6381633 43.6129771 12.5438776 38.6347606 14.1242857 36.4014367 14.8404082 32.0452156 17 32.0452156 17M38.5287455 23C38.5287455 23 26.9684381 20.1027364 37.2804709 16.4613538 42.6957796 14.5410466 56 13 56 13 56 13 55.4561745 15.9644743 53.7420916 16.2381181 52.4800493 16.4397504 37.9091974 17.7575612 36.204293 19.3586174 35.2153108 20.2755641 38.5287455 23 38.5287455 23"/>
    <path fill="#F9F9F9" d="M9.9090475 32.8543458L8.95859387 32.8543458C8.88583187 32.6793789 8.84717706 32.1158493 8.82898656 31.1139936 8.37422406 31.9274759 7.41035494 33 5.11835194 33 1.75310944 33 0 30.443666 0 27.1192956 0 23.6245029 1.87589531 21 5.34777962 21 7.95834375 21 9.64551263 22.3861011 10 24.5104715L8.80420201 24.5104715C8.34943951 23.0153001 7.29416312 22.0404848 5.31367243 22.0404848 2.48300325 22.0404848 1.26401237 24.2627911 1.26401237 27.0577163 1.26401237 29.6117781 2.46003775 31.9522439 5.2206735 31.9522439 7.98108188 31.9522439 8.74940312 30.1209998 8.74940312 27.8123461L8.74940312 27.682598 5.19338775 27.682598 5.19338775 26.6262072 9.9090475 26.6262072 9.9090475 32.8543458zM16.2033903 26.465993L18.9110756 26.465993C20.8539425 26.465993 21.7329129 25.7244462 21.7329129 24.2506801 21.7329129 22.8655266 20.8516595 22.0796735 19.1279644 22.0796735L16.2033903 22.0796735 16.2033903 26.465993zM16.2033903 27.5410027L16.2033903 33 15 33 15 21 19.3882309 21C21.7466111 21 23 22.2988729 23 24.1781578 23 25.7197824 22.1164636 26.6898562 20.8904712 26.9930043 21.9863303 27.2728333 22.8036586 28.0446949 22.8036586 30.1037699L22.8036586 30.5888068C22.8036586 31.4212981 22.7488656 32.5147299 22.9566222 32.9953362L21.7671585 32.9953362C21.5525527 32.4799845 21.5867983 31.5308978 21.5867983 30.45822L21.5867983 30.1737272C21.5867983 28.322192 21.0594161 27.5363389 18.87683 27.5363389L16.2033903 27.5410027z"/>
    <polygon fill="#F9F9F9" points="33.41 27.236 27.238 27.236 27.238 31.916 34 31.916 33.829 33 26 33 26 21 33.714 21 33.714 22.087 27.238 22.087 27.238 26.147 33.41 26.147"/>
    <path fill="#F9F9F9" d="M43.9795863,28.0168484 C42.7732214,24.6378476 42.1362787,22.9399522 41.8952308,22.0864572 L41.8797011,22.0864572 C41.598366,23.0451233 40.8824244,25.1179969 39.9103554,28.0168484 L43.9795863,28.0168484 Z M39.5569985,29.1009736 L38.1885845,33 L37,33 L41.1930184,21 L42.6267021,21 L47,32.9955693 L45.7351174,32.9955693 L44.3284419,29.0965429 L39.5569985,29.1009736 Z"/>
    <polygon fill="#F9F9F9" points="50.892 22.092 47 22.092 47 21 56 21 56 22.087 52.108 22.087 52.108 33 50.892 33"/>
    <polygon fill="#F9F9F9" points="66.394 27.236 60.233 27.236 60.233 31.916 67 31.916 66.829 33 59 33 59 21 66.698 21 66.698 22.087 60.233 22.087 60.233 26.147 66.394 26.147"/>
    <path fill="#F9F9F9" d="M71.2042274,26.465993 L73.9143102,26.465993 C75.8588975,26.465993 76.7386461,25.7244462 76.7386461,24.2506801 C76.7386461,22.8655266 75.8566124,22.0796735 74.131391,22.0796735 L71.2042274,22.0796735 L71.2042274,26.465993 Z M71.2042274,27.5410027 L71.2042274,33 L70,33 L70,21 L74.3850328,21 C76.7455013,21 78,22.2988729 78,24.1781578 C78,25.7197824 77.1156812,26.6898562 75.8886033,26.9930043 C76.9854327,27.2728333 77.8034847,28.0446949 77.8034847,30.1037699 L77.8034847,30.5888068 C77.8034847,31.4212981 77.7509283,32.5147299 77.9588689,32.9953362 L76.7683519,32.9953362 C76.5512711,32.4799845 76.585547,31.5308978 76.585547,30.45822 L76.585547,30.1737272 C76.585547,28.322192 76.0599829,27.5363389 73.8731791,27.5363389 L71.2042274,27.5410027 Z"/>
    <polygon fill="#F9F9F9" points="15 38 19 38 19 38.179 15.193 38.179 15.193 41.37 18.768 41.37 18.768 41.549 15.193 41.549 15.193 45 15.004 45"/>
    <polygon stroke="#F9F9F9" points="15 38 19 38 19 38.179 15.193 38.179 15.193 41.37 18.768 41.37 18.768 41.549 15.193 41.549 15.193 45 15.004 45"/>
    <path fill="#F9F9F9" d="M26.7815126,42.0965909 C26.0042017,39.8869949 25.5687548,38.5612374 25.4446142,38.2074811 C25.3834989,38.4662247 24.7818946,40.2758838 24.170741,42.0965909 L26.7815126,42.0965909 Z M24.1077158,42.2755682 L23.1909855,45 L23,45 L25.3567609,38 L25.5477464,38 L28,45 L27.8090145,45 L26.8540871,42.2755682 L24.1077158,42.2755682 Z"/>
    <path stroke="#F9F9F9" d="M26.7815126,42.0965909 C26.0042017,39.8869949 25.5687548,38.5612374 25.4446142,38.2074811 C25.3834989,38.4662247 24.7818946,40.2758838 24.170741,42.0965909 L26.7815126,42.0965909 Z M24.1077158,42.2755682 L23.1909855,45 L23,45 L25.3567609,38 L25.5477464,38 L28,45 L27.8090145,45 L26.8540871,42.2755682 L24.1077158,42.2755682 Z"/>
    <path fill="#F9F9F9" d="M33.3450038,45 L31,38.0088272 L31.1892506,38.0088272 L32.5047313,41.8906053 C32.8832324,43.0226986 33.2995836,44.2739596 33.4509841,44.7817465 L33.4678274,44.7817465 C33.5985995,44.3247163 34.0904618,42.9542875 34.4538229,41.9128941 L35.8107494,38 L36,38 L33.5624527,44.9911728 L33.3450038,45 Z"/>
    <path stroke="#F9F9F9" d="M33.3450038,45 L31,38.0088272 L31.1892506,38.0088272 L32.5047313,41.8906053 C32.8832324,43.0226986 33.2995836,44.2739596 33.4509841,44.7817465 L33.4678274,44.7817465 C33.5985995,44.3247163 34.0904618,42.9542875 34.4538229,41.9128941 L35.8107494,38 L36,38 L33.5624527,44.9911728 L33.3450038,45 Z"/>
    <path fill="#F9F9F9" d="M41.2026742,41.480663 C41.2026742,43.2209945 42.1189303,44.8259669 43.9702322,44.8259669 C45.8219564,44.8259669 46.7973258,43.3219767 46.7973258,41.4505832 C46.7973258,39.6715777 45.7755102,38.1740331 44.0190007,38.1740331 C42.2624912,38.1740331 41.2047854,39.6436464 41.2047854,41.480663 L41.2026742,41.480663 Z M47,41.441989 C47,43.3756906 46.0056298,45 43.9702322,45 C42.0999296,45 41,43.4530387 41,41.5 C41,39.6243094 42.0555947,38 44.0295567,38 C45.8726249,38 47,39.5362185 47,41.441989 L47,41.441989 Z"/>
    <path stroke="#F9F9F9" d="M41.2026742,41.480663 C41.2026742,43.2209945 42.1189303,44.8259669 43.9702322,44.8259669 C45.8219564,44.8259669 46.7973258,43.3219767 46.7973258,41.4505832 C46.7973258,39.6715777 45.7755102,38.1740331 44.0190007,38.1740331 C42.2624912,38.1740331 41.2047854,39.6436464 41.2047854,41.480663 L41.2026742,41.480663 Z M47,41.441989 C47,43.3756906 46.0056298,45 43.9702322,45 C42.0999296,45 41,43.4530387 41,41.5 C41,39.6243094 42.0555947,38 44.0295567,38 C45.8726249,38 47,39.5362185 47,41.441989 Z"/>
    <path fill="#F9F9F9" d="M50.1975684,38 L50.1975684,42.3145613 C50.1975684,44.1854387 51.3200174,44.8235843 52.5182371,44.8235843 C54.0165002,44.8235843 54.8002605,43.9523958 54.8002605,42.3145613 L54.8002605,38.002178 L55,38.002178 L55,42.2753578 C55,44.3422526 53.9381242,45 52.4989145,45 C51.2592271,45 50,44.3814561 50,42.4016801 L50,38.002178 L50.1975684,38 Z"/>
    <path stroke="#F9F9F9" d="M50.1975684,38 L50.1975684,42.3145613 C50.1975684,44.1854387 51.3200174,44.8235843 52.5182371,44.8235843 C54.0165002,44.8235843 54.8002605,43.9523958 54.8002605,42.3145613 L54.8002605,38.002178 L55,38.002178 L55,42.2753578 C55,44.3422526 53.9381242,45 52.4989145,45 C51.2592271,45 50,44.3814561 50,42.4016801 L50,38.002178 L50.1975684,38 Z"/>
    <path fill="#F9F9F9" d="M61.1967536,41.3806818 L62.9675357,41.3806818 C63.9729464,41.3806818 64.8268569,41.0315657 64.8268569,39.7986111 C64.8268569,38.7844066 64.2070831,38.1789773 63.1015248,38.1789773 L61.2046237,38.1789773 L61.1967536,41.3806818 Z M61.1967536,41.5687184 L61.1967536,45 L61,45 L61,38 L63.0857846,38 C64.2013773,38 65,38.5656566 65,39.7897727 C65,40.613952 64.639941,41.28125 63.6797836,41.4602273 C64.3625184,41.5883838 64.9016232,41.9465593 64.9016232,43.4090909 L64.9016232,43.5372475 C64.9016232,44.4630682 64.919331,44.8101957 64.9822922,45 L64.7855386,45 C64.7200197,44.5160985 64.6997541,44.0260101 64.7247418,43.5372475 L64.7247418,43.4488636 C64.7247418,42.2159091 64.4353173,41.5687184 63.0245942,41.5687184 L61.1967536,41.5687184 Z"/>
    <path stroke="#F9F9F9" d="M61.1967536,41.3806818 L62.9675357,41.3806818 C63.9729464,41.3806818 64.8268569,41.0315657 64.8268569,39.7986111 C64.8268569,38.7844066 64.2070831,38.1789773 63.1015248,38.1789773 L61.2046237,38.1789773 L61.1967536,41.3806818 Z M61.1967536,41.5687184 L61.1967536,45 L61,45 L61,38 L63.0857846,38 C64.2013773,38 65,38.5656566 65,39.7897727 C65,40.613952 64.639941,41.28125 63.6797836,41.4602273 C64.3625184,41.5883838 64.9016232,41.9465593 64.9016232,43.4090909 L64.9016232,43.5372475 C64.9016232,44.4630682 64.919331,44.8101957 64.9822922,45 L64.7855386,45 C64.7200197,44.5160985 64.6997541,44.0260101 64.7247418,43.5372475 L64.7247418,43.4488636 C64.7247418,42.2159091 64.4353173,41.5687184 63.0245942,41.5687184 L61.1967536,41.5687184 Z"/>
  </g>
</svg>
