<svg xmlns="http://www.w3.org/2000/svg" xmlns:xlink="http://www.w3.org/1999/xlink" width="95" height="95" viewBox="0 0 95 95">
  <defs>
    <polygon id="subject-a" points="0 .402 63.598 .402 63.598 64 0 64"/>
  </defs>
  <g fill="none" fill-rule="evenodd">
    <circle cx="47.5" cy="47.5" r="47.5" fill="#CAC2FE"/>
    <g transform="translate(15 15)">
      <mask id="subject-b" fill="#fff">
        <use xlink:href="#subject-a"/>
      </mask>
      <path fill="#FFF" d="M51.8181878,39.5864163 C50.455902,37.2314776 48.7566367,34.7426612 46.7615347,32.2009469 C48.7566367,29.6592327 50.455902,27.1704163 51.8181878,24.8154776 C58.1946776,26.6433959 62.2919837,29.2993959 62.2919837,32.2009469 C62.2919837,35.102498 58.1946776,37.758498 51.8181878,39.5864163 M53.3607184,53.7630694 C51.3088,55.8136816 46.5336163,54.7949061 40.7324735,51.5785796 C41.4345143,48.9500082 41.9922286,45.9890286 42.3788408,42.7805388 C45.5873306,42.3939265 48.5483102,41.8362122 51.1775347,41.1341714 C54.3932082,46.9353143 55.4126367,51.710498 53.3607184,53.7630694 M31.799249,62.6936816 C28.8957388,62.6936816 26.2390857,58.5937633 24.4111673,52.2133551 C26.7687184,50.8504163 29.2555755,49.1550694 31.799249,47.1586612 C34.3429224,49.1550694 36.8304327,50.8504163 39.1866776,52.2133551 C37.3587592,58.5931102 34.7021061,62.6936816 31.799249,62.6936816 M10.2371265,53.7630694 C8.18520816,51.710498 9.20463673,46.9353143 12.4209633,41.1341714 C15.0495347,41.8362122 18.0105143,42.3939265 21.2196571,42.7805388 C21.6056163,45.9890286 22.1639837,48.9500082 22.8660245,51.5792327 C17.0642286,54.7955592 12.2890449,55.8143347 10.2371265,53.7630694 M1.30586122,32.2009469 C1.30586122,29.2993959 5.40382041,26.6433959 11.7796571,24.8154776 C13.1419429,27.1704163 14.8418612,29.6592327 16.8369633,32.2009469 C14.8418612,34.7426612 13.1425959,37.2314776 11.7796571,39.5864163 C5.40382041,37.758498 1.30586122,35.102498 1.30586122,32.2009469 M10.2371265,10.6394776 C10.9339429,9.94266122 11.9853714,9.59849796 13.3280653,9.59849796 C15.362351,9.59849796 18.0634122,10.388702 21.207249,11.9423347 C21.7532082,12.212049 22.3083102,12.5072327 22.8679837,12.8154776 C22.1652898,15.4466612 21.6062694,18.4096 21.2196571,21.6213551 C18.0105143,22.0079673 15.0495347,22.5656816 12.4209633,23.2677224 C9.20463673,17.4665796 8.18520816,12.6913959 10.2371265,10.6394776 M31.799249,1.70821224 C34.7021061,1.70821224 37.3587592,5.80813061 39.1866776,12.1878857 C36.7905959,13.5769469 34.3024327,15.2781714 31.799249,17.2412735 C29.2960653,15.2781714 26.807249,13.5769469 24.4118204,12.1878857 C26.2390857,5.80813061 28.8957388,1.70821224 31.799249,1.70821224 M42.8803918,27.6105796 C42.8026776,26.0203755 42.6857796,24.4719673 42.530351,22.9725388 C45.409698,23.3362939 48.0918204,23.8404571 50.4950857,24.4569469 C49.2314122,26.5924571 47.6921469,28.8448653 45.9132082,31.1377633 C44.961698,29.9681306 43.9501061,28.7900082 42.8803918,27.6105796 M42.9568,34.7335184 C42.9790041,33.8976 42.9933714,33.0558041 42.9933714,32.2009469 C42.9933714,31.3467429 42.9790041,30.5042939 42.9568,29.6683755 C43.6934531,30.5140898 44.3974531,31.359151 45.0740245,32.2009469 C44.3974531,33.0427429 43.6934531,33.8878041 42.9568,34.7335184 M42.8803918,36.7913143 C43.9501061,35.6118857 44.961698,34.4337633 45.9132082,33.2634776 C47.6921469,35.5570286 49.2314122,37.8094367 50.4950857,39.9449469 C48.0911673,40.5614367 45.409698,41.0656 42.530351,41.4293551 C42.6857796,39.9299265 42.8026776,38.3815184 42.8803918,36.7913143 M37.9027592,41.8806204 C38.5074939,41.3065796 39.1122286,40.7194776 39.7150041,40.116702 C40.3190857,39.5126204 40.9042286,38.9065796 41.4789224,38.3005388 C41.4018612,39.4185796 41.3019429,40.5137633 41.185698,41.5867429 C40.1133714,41.7042939 39.0194939,41.8035592 37.9027592,41.8806204 M36.3837388,43.2827429 C37.975902,43.2050286 39.5262694,43.0874776 41.0276571,42.932702 C40.663902,45.812049 40.1597388,48.4928653 39.543249,50.8967837 C37.4064327,49.6324571 35.1520653,48.0918857 32.8578612,46.3116408 C34.0274939,45.3607837 35.2049633,44.3518041 36.3837388,43.2827429 M29.2666776,43.358498 C30.1019429,43.380702 30.9443918,43.3957224 31.799249,43.3957224 C32.6534531,43.3957224 33.495902,43.380702 34.3318204,43.358498 C33.4861061,44.094498 32.6410449,44.798498 31.799249,45.4757224 C30.9574531,44.798498 30.1123918,44.094498 29.2666776,43.358498 M27.2141061,43.2827429 C28.3941878,44.3518041 29.5710041,45.3607837 30.7406367,46.3116408 C28.4457796,48.0918857 26.1920653,49.6324571 24.0545959,50.8967837 C23.4381061,48.4935184 22.9339429,45.812049 22.5708408,42.932702 C24.0722286,43.0874776 25.6225959,43.2050286 27.2141061,43.2827429 M22.1189224,38.3005388 C22.6936163,38.9065796 23.2794122,39.5126204 23.8834939,40.116702 C24.4856163,40.7194776 25.090351,41.3065796 25.6957388,41.8806204 C24.5790041,41.8035592 23.4844735,41.7042939 22.4128,41.5867429 C22.295902,40.5137633 22.1966367,39.4185796 22.1189224,38.3005388 M20.7174531,36.7913143 C20.7951673,38.3815184 20.9133714,39.9299265 21.0674939,41.4293551 C18.1881469,41.0656 15.5066776,40.5614367 13.1034122,39.9449469 C14.3664327,37.8094367 15.906351,35.5570286 17.6846367,33.2634776 C18.6361469,34.4337633 19.6477388,35.6118857 20.7174531,36.7913143 M20.641698,29.6683755 C20.6194939,30.5042939 20.6044735,31.3467429 20.6044735,32.2009469 C20.6044735,33.0558041 20.6194939,33.8976 20.641698,34.7335184 C19.9050449,33.8878041 19.2010449,33.0427429 18.5251265,32.2009469 C19.2010449,31.359151 19.9050449,30.5140898 20.641698,29.6683755 M20.7174531,27.6105796 C19.6477388,28.7900082 18.6361469,29.9681306 17.6846367,31.1377633 C15.906351,28.8448653 14.3664327,26.5924571 13.1034122,24.4569469 C15.5066776,23.8404571 18.1881469,23.3362939 21.0674939,22.9725388 C20.9133714,24.4719673 20.7951673,26.0203755 20.7174531,27.6105796 M25.6996571,22.5212735 C25.0910041,23.0979265 24.4849633,23.6837224 23.8834939,24.2851918 C23.2794122,24.8892735 22.6936163,25.4953143 22.1189224,26.1013551 C22.1966367,24.9833143 22.295902,23.8881306 22.4128,22.814498 C23.4864327,22.6976 24.5816163,22.5976816 25.6996571,22.5212735 M27.2082286,21.1198041 C25.6186776,21.1968653 24.0702694,21.3144163 22.5708408,21.4691918 C22.9345959,18.5852735 23.4400653,15.8998857 24.0578612,13.4933551 C26.231249,14.772702 28.482351,16.3165388 30.7491265,18.0798041 C29.5664327,19.0404571 28.3830857,20.0553143 27.2082286,21.1198041 M34.3409633,21.0433959 C33.5024327,21.0211918 32.6567184,21.0061714 31.799249,21.0061714 C30.9411265,21.0061714 30.0954122,21.0211918 29.2568816,21.0433959 C30.103249,20.3041306 30.9515755,19.5949061 31.799249,18.9118041 C32.6469224,19.5949061 33.4945959,20.3041306 34.3409633,21.0433959 M36.3896163,21.1198041 C35.2147592,20.0553143 34.0320653,19.0404571 32.8487184,18.0798041 C35.1168,16.3165388 37.3665959,14.772702 39.5399837,13.4933551 C40.1584327,15.8998857 40.663249,18.5852735 41.0276571,21.4691918 C39.5282286,21.3144163 37.9798204,21.1968653 36.3896163,21.1198041 M39.7150041,24.2851918 C39.1135347,23.6837224 38.5068408,23.0979265 37.8988408,22.5212735 C39.0162286,22.5976816 40.1120653,22.6976 41.185698,22.814498 C41.3019429,23.8881306 41.4018612,24.9833143 41.4789224,26.1013551 C40.9042286,25.4953143 40.3190857,24.8892735 39.7150041,24.2851918 M41.687249,32.2009469 C41.687249,33.5736816 41.6539429,34.9268245 41.5932082,36.2577633 C40.6945959,37.2419265 39.7620245,38.2228245 38.7915755,39.1932735 C37.8204735,40.1637224 36.8395755,41.0969469 35.8567184,41.9949061 C34.5251265,42.0549878 33.1719837,42.0896 31.799249,42.0896 C30.4258612,42.0896 29.0733714,42.0549878 27.7417796,41.9949061 C26.7582694,41.0969469 25.7773714,40.1637224 24.8069224,39.1932735 C23.8358204,38.2228245 22.903902,37.2419265 22.0052898,36.2577633 C21.9445551,34.9268245 21.9105959,33.5736816 21.9105959,32.2009469 C21.9105959,30.8275592 21.9445551,29.4750694 22.0052898,28.1441306 C22.903902,27.1599673 23.8358204,26.1790694 24.8069224,25.2086204 C25.7734531,24.2414367 26.7530449,23.3088653 27.7372082,22.4069878 C29.0701061,22.3469061 30.4245551,22.3122939 31.799249,22.3122939 C33.1732898,22.3122939 34.5277388,22.3469061 35.8606367,22.4069878 C36.8454531,23.3088653 37.8243918,24.2414367 38.7915755,25.2086204 C39.7620245,26.1790694 40.6945959,27.1599673 41.5932082,28.1441306 C41.6539429,29.4750694 41.687249,30.8275592 41.687249,32.2009469 M42.3905959,11.9423347 C45.5350857,10.388702 48.2361469,9.59849796 50.2697796,9.59849796 C51.6124735,9.59849796 52.6645551,9.94266122 53.3607184,10.6394776 C55.4126367,12.6913959 54.3932082,17.4665796 51.1775347,23.2677224 C48.5483102,22.5656816 45.5873306,22.0079673 42.3788408,21.6213551 C41.9915755,18.4096 41.4332082,15.4466612 40.7298612,12.8154776 C41.2895347,12.5072327 41.8452898,12.212049 42.3905959,11.9423347 M63.5981061,32.2009469 C63.5981061,28.7279673 59.3172898,25.6736 52.4784327,23.6353959 C55.8730449,17.3581714 56.7403102,12.1715592 54.2841469,9.71604898 C52.0787592,7.51066122 47.649698,7.88551837 41.8119837,10.7713959 C41.335249,11.007151 40.8519837,11.2618449 40.3661061,11.5263347 C38.327902,4.68421224 35.2728816,0.402089796 31.799249,0.402089796 C28.3249633,0.402089796 25.2705959,4.68421224 23.2330449,11.5263347 C22.7458612,11.2618449 22.2625959,11.007151 21.7865143,10.7713959 C15.9461878,7.88551837 11.5171265,7.51196735 9.31369796,9.71604898 C6.85753469,12.1715592 7.7248,17.3581714 11.1200653,23.6353959 C4.2805551,25.6736 -0.00026122449,28.7279673 -0.00026122449,32.2009469 C-0.00026122449,35.6739265 4.2805551,38.7289469 11.1200653,40.766498 C7.7248,47.0437224 6.85753469,52.2303347 9.31369796,54.686498 C10.2665143,55.6393143 11.6288,56.0918857 13.3078204,56.0918857 C15.9559837,56.0918857 19.3917388,54.9575184 23.2330449,52.8794776 C25.271902,59.7196408 28.3256163,63.9998041 31.799249,63.9998041 C35.2722286,63.9998041 38.3265959,59.7196408 40.3648,52.8794776 C44.2074122,54.9575184 47.6418612,56.0918857 50.2900245,56.0918857 C51.9683918,56.0918857 53.3313306,55.6386612 54.2841469,54.686498 C56.7403102,52.2303347 55.8730449,47.0437224 52.4784327,40.766498 C59.3172898,38.7289469 63.5981061,35.6739265 63.5981061,32.2009469" mask="url(#subject-b)"/>
      <path fill="#F42269" d="M25 33C25 29.1346 27.9107 26 31.5 26 35.0893 26 38 29.1346 38 33 38 36.8661 35.0893 40 31.5 40 27.9107 40 25 36.8661 25 33M52 16C52 14.3434 53.3428 13 55 13 56.6566 13 58 14.3434 58 16 58 17.6572 56.6566 19 55 19 53.3428 19 52 17.6572 52 16"/>
      <path fill="#4159ED" d="M4,39 C4,37.3434 5.3428,36 7,36 C8.6572,36 10,37.3434 10,39 C10,40.6572 8.6572,42 7,42 C5.3428,42 4,40.6572 4,39"/>
      <path fill="#D6E2FC" d="M25,16 C25,14.3434 26.3428,13 28,13 C29.6566,13 31,14.3434 31,16 C31,17.6572 29.6566,19 28,19 C26.3428,19 25,17.6572 25,16"/>
      <path fill="#FCA639" d="M35,57 C35,55.3434 36.3428,54 38,54 C39.6572,54 41,55.3434 41,57 C41,58.6572 39.6572,60 38,60 C36.3428,60 35,58.6572 35,57"/>
    </g>
  </g>
</svg>
